<svg width="152" height="155" viewBox="0 0 152 155" fill="none" xmlns="http://www.w3.org/2000/svg">
<path d="M132.585 59.5359H113.431L115.805 51H142.5V132H103.5V123.283H118.042H132.585V59.5359Z" stroke="white"/>
<rect x="71.8446" y="26.6539" width="41.7205" height="44.2177" transform="rotate(14.6955 71.8446 26.6539)" stroke="white"/>
<rect x="53" y="118.5" width="42" height="22" stroke="white"/>
<rect x="65.9911" y="75.286" width="28.3704" height="10.0287" transform="rotate(14.6955 65.9911 75.286)" stroke="white"/>
<rect x="69.8353" y="91.2693" width="10.4607" height="10.4607" transform="rotate(14.6955 69.8353 91.2693)" stroke="white"/>
<rect x="19" y="124.5" width="26" height="7" stroke="white"/>
<rect x="85.5751" y="0.610485" width="28.3704" height="10.0287" transform="rotate(14.6955 85.5751 0.610485)" stroke="white"/>
<rect x="87.1044" y="15.8335" width="16.3552" height="10.0287" transform="rotate(14.6955 87.1044 15.8335)" stroke="white"/>
<path d="M151.5 148.5H0.5V154.5H151.5V148.5Z" stroke="white"/>
</svg>
