<svg width="135" height="135" viewBox="0 0 135 135" fill="none" xmlns="http://www.w3.org/2000/svg">
<rect x="112.268" y="88.407" width="22.2326" height="22.2326" stroke="#D9D9D9"/>
<rect x="14.9419" y="108.5" width="22.2326" height="22.2326" stroke="#D9D9D9"/>
<rect x="0.5" y="58.8954" width="22.2326" height="22.2326" stroke="#D9D9D9"/>
<rect x="3.01172" y="23.7326" width="22.2326" height="22.2326" stroke="#D9D9D9"/>
<rect x="59.5234" y="0.5" width="22.2326" height="22.2326" stroke="#D9D9D9"/>
<rect x="108.5" y="34.407" width="22.2326" height="22.2326" stroke="#D9D9D9"/>
<rect x="58.8955" y="111.64" width="22.2326" height="22.2326" stroke="#D9D9D9"/>
<rect x="46.9653" y="75.2209" width="22.2326" height="22.2326" stroke="#D9D9D9"/>
<rect x="46.9653" y="43.1977" width="22.2326" height="22.2326" stroke="#D9D9D9"/>
<path d="M25.4302 30.7674L59.3372 15.0698" stroke="#D9D9D9"/>
<path d="M25.4302 39.8721L47.093 49.2907" stroke="#D9D9D9"/>
<path d="M68.4417 22.6046L62.4766 43.0116M108.628 53.686L69.0696 78.8023M81.6278 21.3488L108.628 40.186M112.395 91.9884L69.3836 63.1046M112.395 105.488L81.3138 121.814M22.9185 79.7442L58.7092 115.535M37.3603 112.395L48.6626 97.6395M22.9185 72.8372L46.7789 81.3139M22.9185 66.2442L46.7789 57.7674" stroke="#D9D9D9"/>
</svg>
